<?xml version="1.0" standalone="no"?>
<!DOCTYPE svg PUBLIC "-//W3C//DTD SVG 20010904//EN"
 "http://www.w3.org/TR/2001/REC-SVG-20010904/DTD/svg10.dtd">
<svg version="1.0" xmlns="http://www.w3.org/2000/svg"
 width="500.000000pt" height="500.000000pt" viewBox="0 0 500.000000 500.000000"
 preserveAspectRatio="xMidYMid meet">
<metadata>
Created by potrace 1.11, written by Peter Selinger 2001-2013
</metadata>
<g transform="translate(0.000000,500.000000) scale(0.100000,-0.100000)"
fill="#000000" stroke="none">
<path d="M3298 4767 c-36 -56 -328 -498 -649 -982 -1297 -1960 -1562 -2361
-1566 -2372 -4 -10 130 -13 648 -13 l654 1 65 75 c36 41 68 80 71 87 8 13 34
114 254 972 81 314 178 694 217 845 191 745 189 733 182 780 -4 32 -2 41 5 30
5 -8 12 -12 15 -10 2 3 30 104 61 225 31 121 70 271 86 334 16 63 28 118 27
122 -2 5 -33 -37 -70 -94z"/>
<path d="M3900 999 c-129 -111 -352 -205 -555 -234 -227 -33 -447 -10 -930 95
-473 103 -660 135 -862 150 -347 26 -669 -52 -825 -201 l-53 -50 45 25 c277
153 723 121 1600 -114 405 -109 721 -125 1016 -50 233 59 440 186 567 348 53
68 52 78 -3 31z"/>
<path d="M987 730 c-63 -11 -71 -20 -19 -20 64 0 189 -19 293 -45 138 -35 268
-82 573 -207 353 -144 491 -195 604 -224 335 -85 637 -38 862 134 61 47 147
130 125 120 -5 -2 -39 -18 -75 -36 -103 -50 -170 -64 -332 -69 -251 -9 -451
29 -864 166 -231 76 -433 129 -619 161 -133 24 -463 36 -548 20z"/>
</g>
</svg>
